<svg width="30" height="30" viewBox="0 0 30 30" fill="none" xmlns="http://www.w3.org/2000/svg">
<g id="SVGRepo_iconCarrier">
<path id="Vector" d="M2.30769 26.2936L6.40154 22.8745H25.3846C25.9967 22.8745 26.5836 22.6208 27.0164 22.1693C27.4492 21.7177 27.6923 21.1053 27.6923 20.4667V4.81568C27.6923 4.17708 27.4492 3.56464 27.0164 3.11308C26.5836 2.66152 25.9967 2.40784 25.3846 2.40784H4.61538C4.00335 2.40784 3.41638 2.66152 2.9836 3.11308C2.55082 3.56464 2.30769 4.17708 2.30769 4.81568V26.2936ZM7.21154 25.2823L1.87385 29.7369C1.70418 29.8782 1.49974 29.9668 1.28401 29.9923C1.06827 30.0179 0.850005 29.9794 0.65429 29.8813C0.458575 29.7832 0.293353 29.6295 0.177612 29.4379C0.0618714 29.2462 0.000309076 29.0243 0 28.7978V4.81568C0 3.53849 0.486262 2.3136 1.35181 1.41048C2.21737 0.507365 3.39131 0 4.61538 0H25.3846C26.6087 0 27.7826 0.507365 28.6482 1.41048C29.5137 2.3136 30 3.53849 30 4.81568V20.4667C30 21.7439 29.5137 22.9687 28.6482 23.8719C27.7826 24.775 26.6087 25.2823 25.3846 25.2823H7.21154Z" fill="white"/>
<path id="Vector_2" d="M9.23081 14.4471H20.7693C21.5385 14.4471 21.9231 14.8484 21.9231 15.651C21.9231 16.4536 21.5385 16.8549 20.7693 16.8549H9.23081C8.46158 16.8549 8.07697 16.4536 8.07697 15.651C8.07697 14.8484 8.46158 14.4471 9.23081 14.4471ZM9.23081 7.22353H20.7693C21.5385 7.22353 21.9231 7.62483 21.9231 8.42745C21.9231 9.23006 21.5385 9.63137 20.7693 9.63137H9.23081C8.46158 9.63137 8.07697 9.23006 8.07697 8.42745C8.07697 7.62483 8.46158 7.22353 9.23081 7.22353Z" fill="white"/>
</g>
</svg>
