<svg width="32" height="33" viewBox="0 0 32 33" fill="none" xmlns="http://www.w3.org/2000/svg">
<g id="SVGRepo_iconCarrier">
<path id="Vector" d="M26.8908 31.6694H5.64705C2.95798 31.6694 1.07562 29.5403 1.07562 27.1452V18.629H29.5798C30.3865 18.629 30.9244 19.1613 30.9244 19.9597V27.4113C30.9244 29.8064 29.042 31.6694 26.8908 31.6694Z" fill="#B9B8F5"/>
<path id="Vector_2" d="M25.0084 33H6.72269C2.95798 33 0 30.0726 0 26.3468V9.58064C0 5.85483 2.95798 2.92741 6.72269 2.92741H25.2773C29.042 2.92741 32 5.85483 32 9.58064V26.3468C31.7311 29.8064 28.7731 33 25.0084 33ZM6.72269 4.79032C4.03361 4.79032 1.88235 6.91935 1.88235 9.58064V26.3468C1.88235 29.0081 4.03361 31.1371 6.72269 31.1371H25.2773C27.9664 31.1371 30.1176 29.0081 30.1176 26.3468V9.58064C30.1176 6.91935 27.9664 4.79032 25.2773 4.79032H6.72269Z" fill="#140066"/>
<path id="Vector_3" d="M23.9328 8.25V5.85484C23.9328 3.19355 22.3193 1.06451 20.1681 1.06451H11.2941C9.14286 1.06451 7.52941 3.19355 7.52941 5.85484V8.25H23.9328Z" fill="#B9B8F5"/>
<path id="Vector_4" d="M23.9328 9.31452H6.72269V8.51613V5.85484C6.72269 2.66129 8.87395 0 11.563 0H20.437C23.126 0 25.2773 2.66129 25.2773 5.85484V9.04839L23.9328 9.31452ZM8.60504 7.18548H23.395V5.85484C23.395 3.72581 22.0504 2.12903 20.437 2.12903H11.2941C9.68067 2.12903 8.33613 3.72581 8.33613 5.85484V7.18548H8.60504Z" fill="#140066"/>
<path id="Vector_5" d="M27.6975 9.31452H4.03361C3.49579 9.31452 2.95798 8.78226 2.95798 8.25C2.95798 7.71774 3.49579 7.18549 4.03361 7.18549H27.6975C28.2353 7.18549 28.7731 7.71774 28.7731 8.25C28.7731 8.78226 28.2353 9.31452 27.6975 9.31452Z" fill="#140066"/>
<path id="Vector_6" d="M10.9714 18.8073L16.7879 23.1053L15.6639 24.5956L9.84202 20.3003L10.9714 18.8073Z" fill="#140066"/>
<path id="Vector_7" d="M14.2575 23.4699L23.8844 13.4315L25.2477 14.7143L15.6208 24.7527L14.2575 23.4699Z" fill="#140066"/>
</g>
</svg>
