<svg width="36" height="33" viewBox="0 0 36 33" fill="none" xmlns="http://www.w3.org/2000/svg">
<g id="Layer_1">
<g id="SVGRepo_iconCarrier">
<g id="Group">
<g id="Group_2">
<g id="Group_3">
<path id="Vector" d="M16.77 11H19.17C19.53 11 19.77 10.78 19.77 10.45C19.77 10.12 19.53 9.90006 19.17 9.90006H16.77C16.41 9.90006 16.17 10.12 16.17 10.45C16.17 10.78 16.41 11 16.77 11Z" fill="white"/>
<path id="Vector_2" d="M16.77 13.2H17.97C18.33 13.2 18.57 12.98 18.57 12.65C18.57 12.32 18.33 12.1 17.97 12.1H16.77C16.41 12.1 16.17 12.32 16.17 12.65C16.17 12.98 16.41 13.2 16.77 13.2Z" fill="white"/>
<path id="Vector_3" d="M16.77 15.4H19.17C19.53 15.4 19.77 15.18 19.77 14.85C19.77 14.52 19.53 14.3 19.17 14.3H16.77C16.41 14.3 16.17 14.52 16.17 14.85C16.17 15.18 16.41 15.4 16.77 15.4Z" fill="white"/>
<path id="Vector_4" d="M16.77 17.6H17.9701C18.3301 17.6 18.57 17.38 18.57 17.05C18.57 16.72 18.33 16.5 17.97 16.5H16.77C16.41 16.5 16.17 16.72 16.17 17.05C16.17 17.38 16.41 17.6 16.77 17.6Z" fill="white"/>
<path id="Vector_5" d="M26.947 24.1607C26.7265 21.3157 24.9213 18.7732 22.17 17.435V4.3299C23.2021 4.08407 23.97 3.22027 23.97 2.19998C23.97 0.99 22.89 0 21.57 0H14.37C13.05 0 11.97 0.99 11.97 2.19998C11.97 3.22021 12.7379 4.08407 13.77 4.3299V17.435C10.9022 18.8299 9.06285 21.5855 8.97426 24.5276C8.97173 24.6018 8.96997 24.6759 8.96997 24.75C8.96997 29.315 12.9899 33 17.97 33C18.1256 33 18.2803 32.9964 18.434 32.9893C23.1974 32.7689 26.9719 29.1724 27.03 24.75C27.03 24.695 27.03 24.585 27.03 24.53V24.42C27.03 24.3297 26.9993 24.2396 26.947 24.1607ZM13.17 2.19998C13.17 1.59496 13.71 1.09996 14.37 1.09996H21.57C22.2301 1.09996 22.7701 1.59496 22.7701 2.19998C22.7701 2.805 22.2301 3.3 21.57 3.3H14.37C13.71 3.3 13.17 2.805 13.17 2.19998ZM14.61 18.315C14.85 18.205 14.97 18.04 14.97 17.82V4.40002H20.97V17.82C20.97 18.04 21.15 18.205 21.33 18.315C23.6926 19.3257 25.3201 21.3892 25.69 23.7316C24.0124 23.4809 22.4904 23.8346 21.27 24.86L21.21 24.915C18.75 27.005 15.27 25.355 12.99 23.265C12.3498 22.7232 11.5881 22.2929 10.7717 22.004C11.5 20.4037 12.851 19.0674 14.61 18.315ZM10.17 24.75C10.17 24.2792 10.2222 23.815 10.3203 23.3628C10.3465 23.2567 10.3754 23.1508 10.41 23.045C11.0701 23.2649 11.6101 23.65 12.1501 24.035C14.73 26.3999 18.87 28.27 21.93 25.7399L21.99 25.685C23.0097 24.8052 24.2692 24.5301 25.7685 24.8596C25.7591 25.4387 25.6759 26.0007 25.5259 26.538C25.5254 26.5399 25.5248 26.5417 25.5243 26.5435C25.5101 26.5942 25.4952 26.6446 25.4799 26.6948C25.4763 26.7066 25.4727 26.7184 25.4689 26.7302C25.4566 26.7696 25.4438 26.8089 25.4308 26.848C25.4232 26.8709 25.4155 26.8937 25.4076 26.9165C25.3982 26.9438 25.3886 26.971 25.3788 26.9982C25.3664 27.0328 25.3537 27.0673 25.3406 27.1017C25.3351 27.1162 25.3296 27.1306 25.324 27.1451C25.3058 27.1921 25.2873 27.2391 25.268 27.2856C25.2676 27.2867 25.2671 27.2878 25.2666 27.2889C24.1714 29.9332 21.4111 31.823 18.1696 31.8977C18.1033 31.8991 18.0367 31.9 17.97 31.9C13.65 31.9 10.17 28.71 10.17 24.75Z" fill="white"/>
</g>
</g>
</g>
</g>
</g>
</svg>
