<svg width="40" height="41" viewBox="0 0 40 41" fill="none" xmlns="http://www.w3.org/2000/svg">
<g id="Frame">
<g id="SVGRepo_iconCarrier">
<path id="Vector" d="M25 15.375H35V30.75C35 32.3606 35 33.1659 34.5118 33.6663C34.0237 34.1667 33.238 34.1667 31.6667 34.1667H25V15.375Z" stroke="white" stroke-width="2" stroke-linecap="round"/>
<path id="Vector_2" d="M5 15.375H15V34.1667H8.33333C6.76198 34.1667 5.97632 34.1667 5.48815 33.6663C5 33.1659 5 32.3606 5 30.75V15.375Z" stroke="white" stroke-width="2" stroke-linecap="round"/>
<path id="Vector_3" d="M25 15.375H15V34.1667H25V15.375Z" stroke="white" stroke-width="2" stroke-linecap="round"/>
<path id="Vector_4" d="M5 10.25C5 8.63936 5 7.83406 5.48815 7.33369C5.97632 6.83333 6.76198 6.83333 8.33333 6.83333H31.6667C33.238 6.83333 34.0237 6.83333 34.5118 7.33369C35 7.83406 35 8.63936 35 10.25V15.375H5V10.25Z" stroke="white" stroke-width="2" stroke-linecap="round"/>
</g>
</g>
</svg>
