<svg width="32" height="32" viewBox="0 0 32 32" fill="none" xmlns="http://www.w3.org/2000/svg">
<g id="Frame" clip-path="url(#clip0_35_117)">
<g id="SVGRepo_iconCarrier">
<path id="Vector" d="M15.992 2C19.388 2 22.99 4.86 22.99 6.995V11.992C22.99 13.916 22.19 17.596 20.045 19.285C19.498 19.715 19.214 20.4 19.296 21.092C19.378 21.784 19.814 22.383 20.447 22.674L29.15 26.801C29.218 26.832 29.984 26.961 29.984 28.031L29.985 29.983L2.001 29.985V27.956C2.001 27.161 2.597 26.911 2.836 26.802L11.618 22.657C12.248 22.368 12.683 21.772 12.767 21.084C12.851 20.396 12.574 19.714 12.034 19.281C9.956 17.613 8.988 13.946 8.988 11.994V6.997C8.989 4.908 12.626 2.002 15.992 2.002V2ZM15.992 0C11.576 0 6.988 3.686 6.988 6.996V11.993C6.988 14.177 7.985 18.594 10.781 20.84L1.998 24.985C1.998 24.985 0 25.875 0 26.984V29.985C0 31.09 0.895 31.984 1.998 31.984H29.984C31.089 31.984 31.983 31.089 31.983 29.985V26.984C31.983 25.809 29.984 24.985 29.984 24.985L21.281 20.858C24.051 18.678 24.989 14.394 24.989 11.993V6.996C24.989 3.686 20.407 0.001 15.991 0.001L15.992 0Z" fill="white"/>
</g>
</g>
<defs>
<clipPath id="clip0_35_117">
<rect width="32" height="32" fill="white"/>
</clipPath>
</defs>
</svg>
